<svg id="Layer_3" data-name="Layer 3" xmlns="http://www.w3.org/2000/svg" viewBox="0 0 2500 500"><title>Kalood Logo</title><path d="M642.57,262.71l-110.74,90a6,6,0,0,0-2.17,3.53L458,756.22c-.8,4.46,4.47,6.69,8.34,3.54l110.73-90a6,6,0,0,0,2.18-3.54l9-50a6.4,6.4,0,0,1,6.15-5H639.5A4.51,4.51,0,0,1,643,612.7l85.4,147.07a4.54,4.54,0,0,0,3.45,1.46H864.12c4.68,0,8-5.38,5.25-8.53l-121-187.93c-1.7-2-1.14-5.12,1.27-7.07L933.08,409.77c3.88-3.15,2.49-8.54-2.19-8.54H798.58a6.42,6.42,0,0,0-4,1.47L661.39,509.77a6.42,6.42,0,0,1-4,1.46H612.28a4.18,4.18,0,0,1-4.36-5l43-240C651.7,261.79,646.44,259.56,642.57,262.71Z" transform="translate(-457.94 -261.23)"/><path d="M1062.57,402.7l-110.73,90c-3.88,3.15-2.5,8.53,2.18,8.53H1253.7a4.17,4.17,0,0,1,4.36,5l-26.6,150c-.5,2.76-1.75,5-4.66,5H1023.32a4.18,4.18,0,0,1-4.37-5l3.46-20a6.4,6.4,0,0,1,6.15-5h73.23a6.42,6.42,0,0,0,4-1.46l110.73-90c3.88-3.15,2.5-8.54-2.18-8.54H988.65c-29,0-56.57,22.39-61.52,50L904,711.23c-5,27.62,14.58,50,43.61,50h317.62c29,0,56.57-22.38,62.91-49l46.31-260c3.56-28.61-16-51-45-51H1066.55A6.38,6.38,0,0,0,1062.57,402.7Z" transform="translate(-457.94 -261.23)"/><path d="M1550.88,262.71l-110.73,90a6,6,0,0,0-2.17,3.53l-74.21,400c-.79,4.46,4.47,6.69,8.34,3.54l111.13-88.53a6,6,0,0,0,2.17-3.53l73.81-401.46C1560,261.79,1554.76,259.56,1550.88,262.71Z" transform="translate(-457.94 -261.23)"/><path d="M1628,401.23H1950.8c4.69,0,6.07,5.39,2.19,8.54l-110.73,90a6.42,6.42,0,0,1-4,1.46H1667.91a6.41,6.41,0,0,0-6.15,5l-21.17,120a6,6,0,0,1-2.17,3.54l-110.73,90c-3.88,3.15-9.14.92-8.34-3.54l47.14-265C1571.43,423.62,1599,401.23,1628,401.23Z" transform="translate(-457.94 -261.23)"/><path d="M1987.82,446.24l-47.14,265c-5,27.62-32.49,50-61.52,50H1557.92c-4.68,0-6.06-5.38-2.19-8.53l110.74-90a6.38,6.38,0,0,1,4-1.47h168.8a6.4,6.4,0,0,0,6.15-5l21.17-120a6,6,0,0,1,2.18-3.53l110.73-90C1983.35,439.56,1988.61,441.79,1987.82,446.24Z" transform="translate(-457.94 -261.23)"/><path d="M2096.64,401.23h321.23c4.69,0,6.07,5.39,2.19,8.54l-110.73,90a6.45,6.45,0,0,1-4,1.46h-168.8a6.42,6.42,0,0,0-6.16,5l-21.17,120a6,6,0,0,1-2.17,3.54l-110.73,90c-3.88,3.15-9.14.92-8.34-3.54l47.14-265C2040.07,423.62,2067.61,401.23,2096.64,401.23Z" transform="translate(-457.94 -261.23)"/><path d="M2456.45,446.24l-47.14,265c-4.95,27.62-32.49,50-61.52,50H2025c-4.68,0-6.06-5.38-2.19-8.53l110.74-90a6.37,6.37,0,0,1,4-1.47h170.37a6.4,6.4,0,0,0,6.15-5l21.17-120a6,6,0,0,1,2.18-3.53l110.73-90C2452,439.56,2457.25,441.79,2456.45,446.24Z" transform="translate(-457.94 -261.23)"/><path d="M2760.78,401.23H2563.22c-29,0-56.58,22.39-61.52,50l-46.31,260c-4.95,27.62,14.57,50,43.6,50h317.65c29,0,56.57-22.38,61.52-50l79.7-445c.8-4.45-4.46-6.68-8.34-3.53l-110.73,90a5.93,5.93,0,0,0-2.17,3.53l-53.73,300a6.42,6.42,0,0,1-6.16,5h-202a4.18,4.18,0,0,1-4.36-5l26.61-150a6.41,6.41,0,0,1,6.15-5h45.13a6.42,6.42,0,0,0,4-1.46l110.73-90C2766.84,406.62,2765.46,401.23,2760.78,401.23Z" transform="translate(-457.94 -261.23)"/></svg>