<svg id="Layer_1" data-name="Layer 1" xmlns="http://www.w3.org/2000/svg" xmlns:xlink="http://www.w3.org/1999/xlink" viewBox="0 0 2000 623.08"><defs><style>.cls-1{fill:url(#radial-gradient);}.cls-2{fill:url(#linear-gradient);}.cls-3{fill:url(#linear-gradient-2);}.cls-4{fill:url(#linear-gradient-3);}.cls-5{fill:url(#linear-gradient-4);}.cls-6{fill:url(#linear-gradient-5);}.cls-7{fill:url(#linear-gradient-6);}.cls-8{fill:url(#linear-gradient-7);}.cls-9{fill:url(#linear-gradient-8);}</style><radialGradient id="radial-gradient" cx="1000" cy="446.77" r="721.11" gradientTransform="translate(0 -384.39) scale(1 1.56)" gradientUnits="userSpaceOnUse"><stop offset="0" stop-color="#0d6beb"/><stop offset="1" stop-color="#014bb4"/></radialGradient><linearGradient id="linear-gradient" x1="622.92" x2="622.92" y2="623.08" gradientUnits="userSpaceOnUse"><stop offset="0" stop-color="#008fff"/><stop offset="1" stop-color="#0068ff"/></linearGradient><linearGradient id="linear-gradient-2" x1="118.63" y1="155.01" x2="334.54" y2="279.66" xlink:href="#linear-gradient"/><linearGradient id="linear-gradient-3" x1="280.62" x2="280.62" y2="623.08" xlink:href="#linear-gradient"/><linearGradient id="linear-gradient-4" x1="674.85" y1="311.54" x2="1065.23" y2="311.54" xlink:href="#linear-gradient"/><linearGradient id="linear-gradient-5" x1="1327.78" y1="-101.57" x2="850.76" y2="724.64" xlink:href="#linear-gradient"/><linearGradient id="linear-gradient-6" x1="1316.15" y1="238.23" x2="1650.85" y2="431.48" xlink:href="#linear-gradient"/><linearGradient id="linear-gradient-7" x1="1610.32" y1="118.86" x2="1811.13" y2="466.68" xlink:href="#linear-gradient"/><linearGradient id="linear-gradient-8" x1="1955.69" y1="97.89" x2="1955.69" y2="623.08" xlink:href="#linear-gradient"/></defs><title>secondary-header</title><rect class="cls-1" width="2000" height="623.08"/><polygon class="cls-2" points="874.85 0 415.09 443.87 353.69 623.08 474.85 623.08 892.15 0 874.85 0"/><polygon class="cls-3" points="0 360.49 236.38 0 496 0 0 459.4 0 360.49"/><polygon class="cls-4" points="65.23 623.08 451.77 0 496 0 382.54 623.08 153.69 623.08 65.23 623.08"/><polygon class="cls-5" points="965.23 0 892.15 0 874.85 0 674.85 623.08 726.77 623.08 1065.23 0 965.23 0"/><polygon class="cls-6" points="842.15 623.08 674.85 623.08 1211.38 0 1503.69 0 842.15 623.08"/><polygon class="cls-7" points="1263.31 623.08 1453.69 0 1582.54 0 1622.92 0 1540.23 623.08 1263.31 623.08"/><polygon class="cls-8" points="1816.19 0 2000 0 2000 97.89 1540.23 623.08 1443.12 623.08 1816.19 0"/><polygon class="cls-9" points="1911.38 623.08 1951.79 158.55 2000 97.89 2000 623.08 1911.38 623.08"/></svg>